<svg width="40" height="40" viewBox="0 0 40 40" fill="none" xmlns="http://www.w3.org/2000/svg">
<path d="M35.1285 15.2521C35.6876 16.9025 35.9713 18.6287 35.9713 20.3892C35.9713 29.2172 28.7892 36.3993 19.9611 36.3993C11.1331 36.3993 3.95085 29.2172 3.95085 20.3892C3.95085 11.5611 11.133 4.37918 19.961 4.37918C21.7218 4.37918 23.448 4.66262 25.0982 5.22204V1.6592C23.4314 1.20228 21.7099 0.970459 19.9611 0.970459C9.25372 0.970459 0.54248 9.6817 0.54248 20.3892C0.54248 31.0968 9.25372 39.808 19.9611 39.808C30.6686 39.808 39.3797 31.0968 39.3797 20.3892C39.3797 18.6406 39.148 16.919 38.6911 15.2521H35.1285Z" fill="white"/>
<path d="M34.1599 6.17975V2.4563H31.4824V6.17975H27.7812V8.85699H31.4824V12.5803H34.1599V8.85699H37.8831V6.17975H34.1599Z" fill="white"/>
</svg>
