<svg width="16" height="14" viewBox="0 0 16 14" fill="none" xmlns="http://www.w3.org/2000/svg">
<path d="M12.211 9.45C12.211 8.4835 11.4275 7.7 10.461 7.7H9.94365C8.97715 7.7 8.19365 8.4835 8.19365 9.45V9.45C8.19365 10.4165 8.97715 11.2 9.94365 11.2H10.461C11.4275 11.2 12.211 10.4165 12.211 9.45V9.45ZM12.1075 0C11.7209 0 11.4075 0.313401 11.4075 0.7V0.7C11.4075 1.0866 11.0941 1.4 10.7075 1.4H5.67976C5.29316 1.4 4.97976 1.0866 4.97976 0.7V0.7C4.97976 0.313401 4.66636 0 4.27976 0H4.07282C3.68622 0 3.37282 0.313401 3.37282 0.7V0.7C3.37282 1.0866 3.05942 1.4 2.67282 1.4H2.56935C1.67749 1.4 0.970437 2.03 0.970437 2.8L0.962402 12.6C0.962402 13.37 1.67749 14 2.56935 14H13.818C14.7018 14 15.4249 13.37 15.4249 12.6V2.8C15.4249 2.03 14.7018 1.4 13.818 1.4H13.7145C13.3279 1.4 13.0145 1.0866 13.0145 0.7V0.7C13.0145 0.313401 12.7011 0 12.3145 0H12.1075ZM13.818 10.6C13.818 11.7046 12.9225 12.6 11.818 12.6H4.56935C3.46478 12.6 2.56935 11.7046 2.56935 10.6V6.9C2.56935 5.79543 3.46478 4.9 4.56935 4.9H11.818C12.9225 4.9 13.818 5.79543 13.818 6.9V10.6Z" fill="#DABCCB"/>
</svg>
