<svg width="16" height="16" viewBox="0 0 16 16" fill="none" xmlns="http://www.w3.org/2000/svg">
<path d="M5.42451 10.6209C4.96825 10.6209 4.59832 10.2492 4.59832 9.79068V9.52575C4.59832 9.06724 4.96825 8.69558 5.42451 8.69558C5.88077 8.69558 6.2507 9.06724 6.2507 9.52575V9.79068C6.2507 10.2492 5.88077 10.6209 5.42451 10.6209ZM10.239 9.79068V9.52575C10.239 9.06724 9.86916 8.69558 9.41284 8.69558C8.95652 8.69558 8.58665 9.06724 8.58665 9.52575V9.79068C8.58665 10.2492 8.95652 10.6209 9.41284 10.6209C9.86916 10.6209 10.239 10.2492 10.239 9.79068ZM14.9034 10.415C14.8234 10.4321 14.7299 10.4462 14.6231 10.4482C13.8356 13.633 10.9661 16 7.55655 16C2.89012 16 0 12.4371 0 8.68411V7.31589C0 3.55448 2.89668 0 7.55655 0C11.33 0 14.8373 2.95474 14.8373 7.55456C14.9414 7.83365 15.0722 8.02262 15.3403 8.1554C16.4249 8.69584 16.0972 10.3288 14.9034 10.415ZM13.0801 9.77164C12.0753 8.94619 11.3645 7.65594 10.4947 7.01806C9.39327 6.2102 7.55758 6.31916 6.38955 6.83127C6.01622 6.99523 5.82051 7.154 5.5236 7.39423C4.36461 8.33253 3.07926 8.94525 1.68904 9.3275C2.00764 12.1444 4.39378 14.3397 7.2808 14.3397H7.55655C10.2897 14.3397 12.5746 12.3716 13.0801 9.77164Z" fill="white"/>
</svg>
