<svg width="94" height="68" viewBox="0 0 94 68" fill="none" xmlns="http://www.w3.org/2000/svg">
<path d="M20.3282 31.8713L13.9634 31.2867V22.2591C14.0283 22.2591 14.2232 22.324 14.418 22.324C14.6128 22.324 14.8726 22.389 15.1974 22.389C15.5221 22.389 15.8468 22.4539 16.1716 22.4539C16.4963 22.4539 16.886 22.4539 17.2757 22.4539C19.4189 22.4539 21.3674 22.1941 23.1209 21.6745C24.8745 21.155 26.3033 20.3756 27.5373 19.3364C28.7713 18.2973 29.6806 17.0633 30.3301 15.5046C30.9795 14.0108 31.3043 12.2572 31.3043 10.2438C31.3043 8.5552 31.1094 7.06141 30.6548 5.82742C30.2002 4.52847 29.4858 3.48932 28.5116 2.645C27.5373 1.80069 26.2384 1.15122 24.6147 0.761533C22.991 0.306902 21.0426 0.112061 18.7045 0.112061C17.7303 0.112061 16.886 0.112061 16.1716 0.177008C15.4572 0.177008 14.8077 0.241955 14.2232 0.241955C13.6386 0.306902 12.9892 0.306902 12.4046 0.371849C11.8201 0.371849 11.1706 0.436797 10.4562 0.436797H3.24708V3.48932L6.81918 4.20374V31.3517L3.11719 31.9362V35.0537H20.3282V31.8713ZM13.9634 3.35942C14.1582 3.35942 14.418 3.29447 14.6128 3.29447C14.8077 3.29447 15.0675 3.22953 15.3273 3.22953C15.5871 3.22953 15.9118 3.16458 16.1716 3.16458C16.4963 3.16458 16.886 3.09963 17.2757 3.09963C21.5622 3.09963 23.7055 5.50268 23.7055 10.3737C23.7055 12.0624 23.5106 13.4912 23.1859 14.6602C22.7962 15.8293 22.3416 16.7386 21.757 17.388C21.1725 18.0375 20.4581 18.5571 19.6787 18.8818C18.8994 19.2065 18.0551 19.3364 17.2757 19.3364C16.4314 19.3364 15.7819 19.3364 15.3273 19.2715C14.8726 19.2715 14.418 19.2065 14.0283 19.0767V3.35942H13.9634Z" fill="url(#paint0_linear)"/>
<path d="M64.2327 29.0136C65.2719 30.7022 66.7007 32.0661 68.5193 33.1702C70.3378 34.2743 72.546 34.9888 75.1439 35.3135C77.5469 35.6382 79.7551 35.5083 81.8334 34.9238C83.9118 34.3393 85.7303 33.3651 87.354 32.0012C88.9776 30.6373 90.2766 28.8837 91.3807 26.8054C92.4848 24.7271 93.1992 22.3241 93.5889 19.5963C93.9786 16.9334 93.9786 14.5304 93.7188 12.3222C93.3941 10.114 92.7446 8.16555 91.7704 6.47692C90.7312 4.7883 89.3024 3.42441 87.5488 2.3203C85.7303 1.2162 83.5221 0.50178 80.8592 0.177044C78.4562 -0.147692 76.183 -0.017798 74.1047 0.50178C72.0264 1.0863 70.1429 2.06051 68.5193 3.42441C66.8956 4.7883 65.5317 6.54187 64.4925 8.62018C63.3884 10.6985 62.674 13.1015 62.2843 15.8293C61.8946 18.4922 61.8947 20.8952 62.2194 23.1034C62.4792 25.3766 63.1286 27.325 64.2327 29.0136ZM70.0131 16.9334C70.3378 14.4654 70.8574 12.2572 71.5068 10.5037C72.1563 8.75008 72.8707 7.19134 73.715 6.08724C74.5594 4.98314 75.5336 4.13882 76.5727 3.68419C77.6119 3.22956 78.7809 3.03472 79.95 3.22956C81.184 3.42441 82.2231 3.81409 83.1324 4.52851C84.0417 5.24293 84.6911 6.15219 85.2107 7.45113C85.7303 8.68513 86.055 10.2439 86.12 12.0624C86.2499 13.8809 86.12 16.0891 85.7303 18.5571C85.4056 21.0251 84.886 23.1684 84.2365 24.9869C83.587 26.8054 82.8726 28.2342 82.0283 29.4033C81.184 30.5074 80.2098 31.3517 79.1706 31.8063C78.1315 32.261 76.9624 32.4558 75.7934 32.261C74.5594 32.0661 73.5202 31.6764 72.6109 31.027C71.7017 30.3775 71.0522 29.4033 70.5326 28.1693C70.0131 26.9353 69.6883 25.3766 69.6234 23.558C69.4935 21.6096 69.6234 19.4664 70.0131 16.9334Z" fill="url(#paint1_linear)"/>
<path d="M18.445 41.8083L21.3027 41.4186V39.4053H3.11747V41.4186L6.23493 41.8083V43.1073C6.23493 45.5103 6.10504 47.5886 5.84525 49.4721C5.58546 51.2906 5.26073 52.8493 4.93599 54.2132C4.54631 55.5122 4.15662 56.6163 3.76694 57.4606C3.37726 58.3049 2.98757 58.9544 2.72778 59.409H0.779367V59.6039L0.324736 59.409C0.324736 59.7338 0.259789 60.1884 0.259789 60.643C0.259789 61.0976 0.194842 61.6822 0.194842 62.2667C0.194842 62.8512 0.129894 63.4357 0.129894 64.0203C0.129894 64.6048 0.0649472 65.1244 0.0649472 65.644C0.0649472 66.1635 0 66.6182 0 66.9429C0 67.3326 0 67.5924 0 67.7223H2.66284C2.66284 67.5924 2.72778 67.3975 2.79273 67.0728C2.85768 66.7481 2.98757 66.4233 3.05252 65.9687C3.18241 65.579 3.24736 65.1244 3.37726 64.6697C3.50715 64.2151 3.63705 63.8254 3.70199 63.4357C3.83189 62.9811 3.96178 62.6564 4.02673 62.3316C4.09168 62.0069 4.22157 61.8121 4.22157 61.6822H17.211C17.276 61.8121 17.276 62.0719 17.3409 62.3966C17.4059 62.7213 17.4708 63.0461 17.4708 63.4357C17.5358 63.8254 17.6007 64.2151 17.6007 64.6697C17.6656 65.1244 17.7306 65.5141 17.7306 65.9037C17.7955 66.2934 17.7955 66.6182 17.8605 66.9429C17.8605 67.2676 17.9254 67.4625 17.9254 67.5924H20.5233C20.5233 67.5274 20.5883 67.3975 20.5883 67.1377C20.6532 66.878 20.6532 66.5532 20.7182 66.1635C20.7831 65.7738 20.7831 65.3842 20.8481 64.8646C20.913 64.41 20.978 63.8904 20.978 63.4357C21.0429 62.9162 21.1078 62.4615 21.1078 62.0069C21.1728 61.5523 21.1728 61.0976 21.2377 60.708C21.3027 60.3183 21.3027 59.9935 21.3027 59.7338C21.3027 59.474 21.3027 59.2791 21.3027 59.2142H18.2502V41.8083H18.445ZM13.8338 59.2791H5.9102C6.16999 58.7596 6.42978 58.0451 6.75451 57.1359C7.07925 56.2266 7.40398 55.0576 7.66377 53.6937C7.92356 52.3298 8.18335 50.771 8.37819 49.0175C8.57303 47.2639 8.63798 45.3155 8.63798 43.2372V41.7434H13.8987L13.8338 59.2791Z" fill="url(#paint2_linear)"/>
<path d="M90.0169 41.938L91.0561 48.108H93.8488L93.5241 39.47H79.1058H77.4821H72.2214V41.4184L74.2347 41.873L71.1173 51.1605L70.208 53.9532L69.3637 51.1605L65.8565 41.873L68.3245 41.4184V39.47H58.8422V39.9896C58.7123 39.9896 58.6474 39.9896 58.5175 39.9246C58.0629 39.7947 57.5433 39.7298 57.0237 39.5999C56.4392 39.47 55.8547 39.405 55.2701 39.3401C54.6207 39.2752 53.9712 39.2102 53.2568 39.2102C51.6331 39.2102 50.0744 39.47 48.7105 40.0545C47.2816 40.5741 46.0476 41.3535 45.0085 42.3926C43.9693 43.4318 43.125 44.6008 42.5405 46.0297C42.0858 47.1987 41.8261 48.4977 41.7611 49.8616C41.6962 48.4327 41.5663 47.0039 41.2415 45.8348C40.8518 44.4709 40.2673 43.2369 39.423 42.2627C38.6436 41.2885 37.6045 40.5091 36.3705 39.9896C35.1365 39.47 33.6427 39.2102 31.8891 39.2102C30.3304 39.2102 28.9016 39.47 27.6026 40.0545C26.3037 40.639 25.1996 41.4184 24.2903 42.3926C23.381 43.4318 22.6666 44.6658 22.147 46.0946C21.6275 47.5234 21.3677 49.1471 21.3677 50.9007C21.3677 52.6543 21.5625 54.213 21.9522 55.5769C22.3419 56.9408 22.9914 58.1748 23.7707 59.149C24.615 60.1232 25.6542 60.9026 26.8882 61.4222C28.1222 61.9417 29.616 62.2015 31.3046 62.2015C32.8633 62.2015 34.2272 61.8768 35.5262 61.3572C36.8251 60.7727 37.8643 59.9933 38.7735 59.0191C39.6828 57.98 40.3972 56.746 40.8518 55.3171C41.2415 54.213 41.4364 53.044 41.5013 51.745C41.5663 53.044 41.7611 54.3429 42.1508 55.447C42.6054 56.8759 43.2549 58.0449 44.1642 59.0841C45.0734 60.0583 46.1775 60.8376 47.4765 61.4222C48.7754 62.0067 50.3341 62.2665 52.0228 62.2665C52.997 62.2665 53.8413 62.2015 54.5557 62.0716C55.2701 61.9417 55.9196 61.8118 56.4392 61.6819C56.9588 61.5521 57.4783 61.4222 57.868 61.2923C58.3226 61.1624 58.7123 61.0974 59.167 61.0325L59.4917 56.0315L56.8938 55.9016L55.5299 59.149C55.4 59.2789 55.2701 59.4088 55.0753 59.5387C54.8804 59.6686 54.6856 59.7335 54.4258 59.8634C54.166 59.9284 53.8413 59.9933 53.5166 60.0583C53.1918 60.1232 52.7372 60.1232 52.2826 60.1232C51.3083 60.1232 50.464 59.8634 49.7496 59.2789C49.0352 58.7593 48.4507 57.98 47.996 57.0707C47.5414 56.1614 47.2167 55.1223 46.9569 53.8883C46.762 52.7192 46.6321 51.4203 46.6321 50.1863C46.6321 48.6925 46.762 47.3936 47.0218 46.2895C47.2816 45.1854 47.6713 44.2761 48.1909 43.4967C48.7105 42.7823 49.295 42.1978 50.0094 41.8081C50.7238 41.4184 51.5032 41.2885 52.3475 41.2885C52.8021 41.2885 53.1269 41.2885 53.4516 41.3535C53.7763 41.4184 54.0361 41.4834 54.231 41.5483C54.4258 41.6133 54.6207 41.7431 54.7506 41.8081C54.8804 41.938 55.0103 42.0679 55.1402 42.1328L56.0495 45.9647H59.0371L59.2969 41.5483L60.4659 41.8081L67.3503 56.9408C67.2204 57.3305 67.0256 57.6552 66.8957 57.8501C66.7658 58.1098 66.5709 58.2397 66.3112 58.3696C66.1163 58.4995 65.7916 58.5645 65.4668 58.6294C65.1421 58.6944 64.6875 58.6944 64.103 58.6944H62.2195V61.4871C62.4143 61.552 62.6092 61.617 62.869 61.6819C63.1287 61.7469 63.3885 61.8118 63.6483 61.8768C63.9081 61.9417 64.2328 61.9417 64.5576 62.0067C64.8823 62.0067 65.2071 62.0716 65.4668 62.0716C66.3112 62.0716 67.0256 61.8768 67.6101 61.5521C68.1946 61.2273 68.7142 60.7727 69.1688 60.2531C69.6235 59.7335 69.9482 59.149 70.2729 58.4995C70.5977 57.8501 70.8575 57.2655 71.0523 56.681L76.8326 41.8081L78.1316 41.4834L80.3398 41.873V59.2789L76.8976 59.7335V61.7469H89.6922V59.7335L85.016 59.2789V41.6133L90.0169 41.938ZM36.4354 54.7326C36.1756 55.9666 35.8509 56.9408 35.3963 57.7202C34.9416 58.4995 34.4221 59.149 33.7726 59.5387C33.1231 59.9284 32.4087 60.1232 31.6943 60.1232C30.9149 60.1232 30.2005 59.9284 29.551 59.6036C28.9016 59.2789 28.382 58.6944 27.9273 57.98C27.4727 57.2006 27.148 56.2913 26.8882 55.1223C26.6284 53.9532 26.5635 52.5244 26.5635 50.9007C26.5635 49.277 26.6933 47.8482 26.9531 46.6142C27.2129 45.3802 27.5377 44.406 27.9923 43.5617C28.4469 42.7823 28.9665 42.1328 29.616 41.7431C30.2654 41.3535 30.9799 41.1586 31.7592 41.1586C32.5386 41.1586 33.253 41.3535 33.9025 41.6782C34.552 42.0679 35.0715 42.5875 35.5262 43.3668C35.9808 44.1462 36.3055 45.0555 36.5653 46.2245C36.8251 47.3936 36.8901 48.7574 36.8901 50.3811C36.7602 52.1347 36.6303 53.4986 36.4354 54.7326Z" fill="url(#paint3_linear)"/>
<path d="M46.6971 31.8713L42.6704 31.2867V19.921C42.8003 19.921 43.0601 19.921 43.3848 19.9859C43.7096 20.0509 44.0992 19.9859 44.4889 19.9859C44.8786 19.9859 45.3332 19.9859 45.7879 19.9859C46.2425 19.9859 46.6322 19.9859 47.0868 19.9859C47.6713 20.3106 48.1909 20.9601 48.7105 21.8044C49.2301 22.7137 49.7497 23.6879 50.2692 24.792C50.7888 25.8961 51.2434 27.0652 51.6981 28.2342C52.1527 29.4033 52.6073 30.5074 53.062 31.5465C53.5166 32.5207 53.9063 33.365 54.296 34.0145C54.6856 34.664 55.0753 34.9887 55.465 34.9887H63.8432V31.8713L61.9597 31.2867C61.5701 31.2218 61.1804 30.897 60.7907 30.3125C60.401 29.728 60.0113 29.0785 59.6216 28.2342C59.232 27.3899 58.7773 26.5456 58.3227 25.5714C57.8681 24.5972 57.4134 23.6879 56.8289 22.7786C56.3093 21.8694 55.7248 21.09 55.0753 20.3756C54.4259 19.6612 53.7114 19.1416 52.9321 18.8169C54.1011 18.4921 55.0753 18.0375 55.9196 17.388C56.764 16.7385 57.4784 15.9592 57.998 15.0499C58.5825 14.2056 58.9722 13.2314 59.232 12.2572C59.4917 11.218 59.6216 10.2438 59.6216 9.26961C59.6216 7.77583 59.4268 6.47688 58.9722 5.37278C58.5175 4.26868 57.8031 3.29447 56.8289 2.5151C55.8547 1.73574 54.5557 1.15121 52.9321 0.761527C51.3084 0.371844 49.36 0.177002 47.0219 0.177002C46.1776 0.177002 45.4631 0.177002 44.8137 0.241949C44.1642 0.241949 43.5147 0.306896 42.9302 0.371844C42.3457 0.436791 41.7611 0.436791 41.1766 0.501738C40.5921 0.501738 39.9426 0.566685 39.2282 0.566685H31.9541V3.6192L35.5262 4.33362V31.4816L31.8242 32.0661V35.1836H46.6971V31.8713ZM42.3457 13.1664C42.2807 13.0366 42.2807 12.9067 42.3457 12.7768C42.7354 11.9325 43.125 11.0881 43.5797 10.2438C43.7745 9.85414 43.7745 9.5294 43.5797 9.20467C43.19 8.49025 42.8652 7.77583 42.5405 7.06141C42.4756 6.93151 42.4106 6.80162 42.3457 6.60678C42.2158 6.28204 42.3457 6.0872 42.8003 6.15215C43.5797 6.28204 44.424 6.34699 45.2683 6.54183C45.7879 6.60678 46.1776 6.47688 46.5672 6.0872C47.1518 5.43773 47.7363 4.8532 48.3858 4.20373C48.5157 4.07384 48.6456 3.94394 48.8404 4.00889C49.0352 4.07384 49.0352 4.26868 49.1002 4.39857C49.2301 5.30783 49.4249 6.15215 49.5548 7.06141C49.6198 7.51604 49.8795 7.84077 50.2692 8.03562C50.9837 8.4253 51.763 8.75004 52.4774 9.13972C52.6723 9.20467 52.8671 9.33456 52.8671 9.5294C52.8671 9.78919 52.6723 9.85414 52.4774 9.91909C51.763 10.3088 50.9837 10.7634 50.2692 11.1531C49.8795 11.3479 49.6847 11.6077 49.6198 12.0623C49.4899 12.9716 49.36 13.8809 49.1651 14.7901C49.1651 14.92 49.1002 15.0499 48.9703 15.1149C48.7754 15.1798 48.7105 15.1149 48.5806 14.985C47.9311 14.4004 47.3466 13.8159 46.6971 13.1664C46.3075 12.7768 45.9178 12.6469 45.3332 12.7768C44.4889 12.9067 43.6446 13.0366 42.8003 13.1664C42.6055 13.3613 42.4106 13.3613 42.3457 13.1664Z" fill="url(#paint4_linear)"/>
<defs>
<linearGradient id="paint0_linear" x1="14.3787" y1="-5.46373" x2="40.7799" y2="20.2813" gradientUnits="userSpaceOnUse">
<stop stop-color="#2C52E5"/>
<stop offset="1" stop-color="#059BE9"/>
</linearGradient>
<linearGradient id="paint1_linear" x1="74.7349" y1="-5.66289" x2="101.464" y2="23.3961" gradientUnits="userSpaceOnUse">
<stop stop-color="#2C52E5"/>
<stop offset="1" stop-color="#059BE9"/>
</linearGradient>
<linearGradient id="paint2_linear" x1="8.511" y1="34.8866" x2="29.8174" y2="54.2624" gradientUnits="userSpaceOnUse">
<stop stop-color="#2C52E5"/>
<stop offset="1" stop-color="#059BE9"/>
</linearGradient>
<linearGradient id="paint3_linear" x1="50.3258" y1="35.531" x2="58.9034" y2="68.1267" gradientUnits="userSpaceOnUse">
<stop stop-color="#2C52E5"/>
<stop offset="1" stop-color="#059BE9"/>
</linearGradient>
<linearGradient id="paint4_linear" x1="44.6167" y1="-5.40915" x2="70.9425" y2="23.6981" gradientUnits="userSpaceOnUse">
<stop stop-color="#2C52E5"/>
<stop offset="1" stop-color="#059BE9"/>
</linearGradient>
</defs>
</svg>
