<svg width="62" height="63" viewBox="0 0 62 63" fill="none" xmlns="http://www.w3.org/2000/svg">
<path d="M60.0587 34.6878C61.1611 33.1445 61.602 31.3808 61.602 29.5436C61.602 26.0161 61.602 22.5622 61.602 19.0347C61.602 15.4338 61.602 11.9064 61.602 8.30544C61.5285 4.26358 59.2504 1.25056 55.6494 0.295208C54.6941 0.0747426 53.7387 0.00125426 52.7834 0.00125426C47.3453 -0.0722341 43.8913 3.08777 43.8178 8.37893C43.7443 15.4338 43.7443 22.4152 43.8178 29.4701C43.8178 31.6747 44.4792 33.8059 46.096 35.4226C48.4476 37.8478 51.3871 38.1417 54.4736 37.7743C56.7518 37.5538 58.736 36.5985 60.0587 34.6878ZM49.9173 30.1315C49.8439 29.6906 49.8439 29.3231 49.8439 28.8822C49.8439 22.3417 49.8439 15.7278 49.8439 9.1873C49.8439 8.96684 49.8439 8.67288 49.8439 8.45242C49.9173 6.54172 50.8727 5.65986 52.6364 5.58637C54.4736 5.58637 55.5025 6.46823 55.576 8.37893C55.6494 11.9799 55.576 15.5808 55.576 19.1817C55.576 22.1947 55.576 25.2813 55.576 28.2943C55.576 28.8822 55.576 29.4701 55.5025 30.058C55.3555 31.6013 54.4001 32.4831 52.8569 32.5566C51.1667 32.4831 50.1378 31.6747 49.9173 30.1315Z" fill="url(#paint0_linear)"/>
<path d="M3.91409 37.554C5.0899 37.4805 6.26572 37.554 7.44153 37.554C8.9113 37.554 8.9113 37.554 8.9113 36.0842C8.9113 32.2628 8.9113 28.4414 8.9113 24.62C8.9113 23.9586 9.13176 23.5912 9.86665 23.6647C10.6015 23.7381 11.4099 23.6647 12.1448 23.6647C16.7011 23.5177 19.4936 21.313 20.155 16.8302C20.5959 13.5967 20.5959 10.2163 20.0815 6.98279C19.5671 2.94093 16.7746 0.589306 12.7327 0.442329C11.2629 0.368841 9.86665 0.442329 8.39688 0.442329C7.07409 0.442329 5.67781 0.442329 4.35502 0.442329C2.95874 0.442329 2.95874 0.442329 2.95874 1.83861C2.95874 11.1716 2.95874 20.4312 2.95874 29.7642C2.95874 32.0423 2.95874 34.247 2.95874 36.5251C2.95874 37.26 3.17921 37.554 3.91409 37.554ZM9.94013 5.88047C10.675 5.95396 11.3364 5.88047 12.0713 5.88047C13.3941 5.95396 14.2025 6.61535 14.2759 7.93814C14.4229 10.5837 14.4229 13.2293 14.2759 15.9484C14.2025 17.2712 13.3206 18.0061 11.9978 18.0795C11.2629 18.153 10.528 18.0795 9.79316 18.0795C9.20525 18.0795 8.98479 17.7856 9.05827 17.2712C9.05827 15.5074 9.05827 13.6702 9.05827 11.9065C9.05827 10.2163 9.05827 8.52605 9.05827 6.83582C8.98479 6.10093 9.27874 5.88047 9.94013 5.88047Z" fill="url(#paint1_linear)"/>
<path d="M14.3492 57.5427C13.5408 57.6162 13.3939 57.1018 13.4673 56.4404C13.4673 53.8683 13.4673 51.2962 13.4673 48.7241C13.4673 46.152 13.4673 43.5799 13.4673 41.0078C13.4673 40.1995 13.2469 39.9055 12.365 39.9055C9.64595 39.979 6.92688 39.979 4.20782 39.9055C3.17898 39.9055 2.95851 40.1995 2.95851 41.1548C2.95851 45.8581 2.95851 50.4878 2.95851 55.1176C2.95851 57.1018 2.81154 57.3223 0.827351 57.4692C0.239445 57.5427 0.0189794 57.7632 0.0189794 58.3511C0.0189794 59.1595 0.0189794 60.0413 0.0189794 60.8497C0.0189794 63.3483 -0.348462 62.9809 2.15014 62.9809C3.47293 62.9809 3.47293 62.9809 3.54642 61.6581C3.54642 61.0702 3.61991 60.6292 4.35479 60.6292C6.55944 60.6292 8.69061 60.6292 10.8953 60.6292C11.3362 60.6292 11.5567 60.8497 11.6301 61.2906C11.7771 62.9074 11.7771 62.9074 13.3939 62.9074C13.6878 62.9074 13.9818 62.9074 14.2757 62.9074C14.8636 62.9809 15.1576 62.6869 15.1576 62.0255C15.1576 60.7762 15.1576 59.5269 15.1576 58.2776C15.0841 57.9102 14.9371 57.4692 14.3492 57.5427ZM9.05805 57.5427C8.39665 57.4692 7.73526 57.5427 7.07386 57.5427C6.48595 57.5427 6.26549 57.3223 6.33898 56.7344C6.63293 52.619 6.41247 48.5037 6.48595 44.3883C6.48595 43.139 6.48595 43.0655 7.80875 43.139C10.5278 43.139 10.0869 42.7716 10.0869 45.4171C10.0869 47.1074 10.0869 48.7241 10.0869 50.4144C10.0869 52.472 10.0869 54.5297 10.0869 56.5874C10.0869 57.2488 9.79293 57.5427 9.05805 57.5427Z" fill="url(#paint2_linear)"/>
<path d="M25.9605 44.4619C25.887 41.7428 24.1968 39.9056 21.6982 39.7586C18.2442 39.6116 16.26 40.8609 16.0396 43.9474C15.6721 48.2833 15.7456 52.6191 16.0396 56.8814C16.113 58.2042 16.701 59.3065 17.8033 60.0414C19.6405 61.2172 21.6982 61.2172 23.6089 60.3354C25.3726 59.4535 25.9605 57.7633 25.9605 55.9261C25.9605 54.0888 25.9605 52.1781 25.9605 50.3409C25.9605 48.3567 26.034 46.3726 25.9605 44.4619ZM22.58 55.0442C22.58 55.5586 22.5065 55.9995 22.433 56.4405C22.2861 57.3958 21.7716 57.6898 20.8163 57.6898C19.9344 57.6163 19.4935 57.1019 19.42 56.22C19.3465 54.4563 19.42 52.6191 19.42 50.8554C19.42 50.6349 19.42 50.4879 19.42 50.2674C19.42 48.3568 19.42 46.4461 19.42 44.6088C19.42 43.433 19.861 42.9186 20.7428 42.8451C21.8451 42.7716 22.3596 43.1391 22.433 44.3884C22.58 45.8581 22.5065 47.3279 22.5065 48.7977C22.58 50.9288 22.58 52.9865 22.58 55.0442Z" fill="url(#paint3_linear)"/>
<path d="M36.6901 52.8393C35.8818 52.9863 34.8529 52.3249 34.1915 53.2802C34.118 53.4272 34.118 53.7212 34.118 53.9416C34.118 54.603 34.118 55.1909 34.118 55.8523C34.118 57.1016 33.6036 57.616 32.5748 57.6895C31.4725 57.6895 30.958 57.1751 30.958 55.9258C30.958 54.603 30.958 53.2067 30.958 51.8839C30.958 49.6058 30.958 47.4012 30.958 45.123C30.958 43.5063 31.399 42.9184 32.5748 42.9184C33.7506 42.9184 34.118 43.5063 34.118 45.1965C34.118 45.5639 34.118 45.9314 34.118 46.3723C34.118 46.8867 34.3385 47.1072 34.8529 47.1072C37.572 47.0337 37.572 47.6216 37.3515 44.6086C37.3515 44.4616 37.3515 44.3881 37.3515 44.2412C37.1311 41.1546 35.3673 39.7584 31.9869 39.8319C29.3413 39.9053 27.6511 41.6691 27.5776 44.5351C27.5776 46.5193 27.5776 48.43 27.5776 50.4142C27.5776 52.4719 27.5041 54.5295 27.5776 56.5872C27.6511 59.0123 29.2678 60.7025 31.4725 60.9965C34.6325 61.2905 36.6166 60.1146 37.2046 57.5426C37.4985 56.2932 37.4985 54.9705 37.425 53.7212C37.425 53.0598 37.1311 52.7658 36.6901 52.8393Z" fill="url(#paint4_linear)"/>
<path d="M49.8444 39.9055C47.8602 39.9055 48.2277 39.7585 47.7867 41.5223C46.9784 44.7558 46.17 48.0627 45.2881 51.5902C44.2593 48.2097 43.3774 45.1232 42.4956 42.0367C41.6872 39.4646 42.3486 39.9055 39.556 39.832C38.4537 39.832 38.4537 39.9055 38.7477 40.9344C39.85 44.4618 40.8788 48.0627 41.9811 51.5902C42.3486 52.6925 42.716 53.7948 43.01 54.8971C43.3039 56.4404 43.01 57.5427 41.1728 57.3958C40.3644 57.3223 40.1439 57.6897 40.2174 58.4246C40.2174 60.8497 40.0704 60.5558 42.3486 60.5558C42.6425 60.5558 42.9365 60.5558 43.2304 60.5558C44.4063 60.5558 45.2881 60.0413 45.9495 59.0125C46.6109 58.0571 46.9784 56.9548 47.2723 55.8525C48.5951 51.0758 49.9179 46.3725 51.2407 41.5958C51.6816 39.9055 51.9021 39.9055 49.8444 39.9055Z" fill="url(#paint5_linear)"/>
<path d="M60.6467 39.9055C58.442 39.979 56.2374 39.979 54.0327 39.9055C53.1509 39.9055 52.8569 40.1995 52.8569 41.0813C52.9304 44.1678 52.8569 47.2544 52.8569 50.3409C52.8569 53.2804 52.8569 56.2199 52.8569 59.086C52.8569 60.7027 52.8569 60.7027 54.4737 60.7027C56.4579 60.7027 56.3844 60.9967 56.3844 58.792C56.3844 53.9418 56.3844 49.0916 56.3844 44.2413C56.3844 43.433 56.6048 43.0655 57.4867 43.139C58.2216 43.2125 58.883 43.139 59.6179 43.139C61.9695 43.139 61.602 43.3595 61.6755 41.0078C61.6755 40.1995 61.3816 39.9055 60.6467 39.9055Z" fill="url(#paint6_linear)"/>
<path d="M41.0256 36.7456C40.6582 35.4228 40.5847 34.1 40.5847 32.7037C40.5847 30.5726 40.6582 28.4414 40.5847 26.3102C40.4377 23.6647 40.0703 21.166 37.4982 19.6228C36.9838 19.2554 37.3512 19.0349 37.6452 18.8879C39.1884 17.7856 39.9968 16.1688 40.3643 14.4051C40.8052 12.127 40.6582 9.84884 40.5112 7.5707C40.4377 6.90931 40.3643 6.3214 40.2173 5.66C39.4089 2.42652 36.8368 0.442329 33.0154 0.442329C30.0759 0.368841 27.1363 0.442329 24.2703 0.442329C22.9475 0.442329 22.9475 0.442329 22.9475 1.69163C22.9475 7.42372 22.9475 13.1558 22.9475 18.9614C22.9475 24.62 22.9475 30.3521 22.9475 36.0107C22.9475 37.554 22.9475 37.554 24.4173 37.554C25.4461 37.554 26.475 37.554 27.5038 37.554C28.9736 37.554 28.9736 37.554 28.9736 36.1577C28.9736 32.3363 28.9736 28.5884 28.9736 24.767C28.9736 22.2684 28.4591 22.4888 31.3987 22.5623C33.0154 22.6358 33.8973 23.4442 34.3382 24.9874C34.5587 25.6488 34.4852 26.3837 34.4852 27.1186C34.4852 29.3967 34.4852 31.7484 34.4852 34.0265C34.4852 34.9819 34.5587 35.8637 34.8526 36.8191C34.9996 37.3335 35.2201 37.554 35.808 37.554C37.3512 37.554 38.821 37.554 40.3643 37.554C40.9522 37.554 41.2461 37.3335 41.0256 36.7456ZM36.3959 11.9065C36.3224 11.98 36.2489 12.0535 36.1019 12.0535C35.2936 12.2005 34.4852 12.4209 33.6033 12.5679C33.3094 12.6414 33.0889 12.7884 32.9419 13.0823C32.5745 13.8907 32.207 14.6256 31.9131 15.434C31.7661 15.8014 31.6191 15.8014 31.4722 15.434C31.0312 14.7726 30.5903 14.1847 30.2229 13.5233C30.0024 13.1558 29.7084 13.0088 29.2675 12.9354C28.5326 12.8619 27.7243 12.7149 26.9894 12.5679C26.8424 12.5679 26.6954 12.5679 26.6219 12.4209C26.5484 12.274 26.6954 12.2005 26.7689 12.127C27.3568 11.5391 27.9447 10.8777 28.5326 10.2898C28.6796 10.0693 28.7531 9.92233 28.7531 9.62838C28.6061 8.82 28.4591 7.93814 28.3122 7.12977C28.3122 6.61535 28.4591 6.61535 28.7531 6.76233C29.5615 7.05628 30.3698 7.35024 31.1047 7.64419C31.3987 7.79117 31.6191 7.71768 31.9131 7.5707C32.5745 7.20326 33.2359 6.76233 33.9708 6.39489C34.1177 6.3214 34.1912 6.17442 34.3382 6.24791C34.4852 6.3214 34.4117 6.54186 34.4117 6.61535C34.3382 7.42372 34.2647 8.15861 34.1912 8.96698C34.1177 9.40791 34.1912 9.62838 34.5587 9.92233C35.1466 10.4367 35.7345 11.0247 36.2489 11.5391C36.3224 11.686 36.4694 11.7595 36.3959 11.9065Z" fill="url(#paint7_linear)"/>
<defs>
<linearGradient id="paint0_linear" x1="52.6965" y1="37.9489" x2="52.6965" y2="0.00125307" gradientUnits="userSpaceOnUse">
<stop stop-color="#FF6969"/>
<stop offset="1" stop-color="#FFCA6B"/>
</linearGradient>
<linearGradient id="paint1_linear" x1="11.7318" y1="37.5968" x2="11.7318" y2="0.410896" gradientUnits="userSpaceOnUse">
<stop stop-color="#FF6969"/>
<stop offset="1" stop-color="#FFCA6B"/>
</linearGradient>
<linearGradient id="paint2_linear" x1="6.05587" y1="36.2203" x2="23.0538" y2="49.7062" gradientUnits="userSpaceOnUse">
<stop stop-color="#2C52E5"/>
<stop offset="1" stop-color="#059BE9"/>
</linearGradient>
<linearGradient id="paint3_linear" x1="19.8669" y1="36.3614" x2="33.8015" y2="44.4612" gradientUnits="userSpaceOnUse">
<stop stop-color="#2C52E5"/>
<stop offset="1" stop-color="#059BE9"/>
</linearGradient>
<linearGradient id="paint4_linear" x1="31.5086" y1="36.4443" x2="45.2459" y2="44.2111" gradientUnits="userSpaceOnUse">
<stop stop-color="#2C52E5"/>
<stop offset="1" stop-color="#059BE9"/>
</linearGradient>
<linearGradient id="paint5_linear" x1="43.7569" y1="36.5233" x2="58.8307" y2="47.9069" gradientUnits="userSpaceOnUse">
<stop stop-color="#2C52E5"/>
<stop offset="1" stop-color="#059BE9"/>
</linearGradient>
<linearGradient id="paint6_linear" x1="56.3802" y1="36.5847" x2="69.145" y2="43.1235" gradientUnits="userSpaceOnUse">
<stop stop-color="#2C52E5"/>
<stop offset="1" stop-color="#059BE9"/>
</linearGradient>
<linearGradient id="paint7_linear" x1="32.0376" y1="37.5968" x2="32.0376" y2="0.410896" gradientUnits="userSpaceOnUse">
<stop stop-color="#FF6969"/>
<stop offset="1" stop-color="#FFCA6B"/>
</linearGradient>
</defs>
</svg>
