<svg width="13" height="19" viewBox="0 0 13 19" fill="none" xmlns="http://www.w3.org/2000/svg">
<path d="M11.8863 11.736C12.4187 10.8384 12.7719 9.70304 12.8405 8.57964C12.8839 7.85859 12.7245 7.10169 12.3792 6.38994C11.8375 5.27186 10.9071 4.64376 10.0082 4.03692C9.33741 3.5841 8.70349 3.15652 8.2554 2.54569L8.17501 2.4368C7.91011 2.07827 7.61094 1.67194 7.56349 1.33067C7.51605 0.985416 7.20502 0.739756 6.86499 0.759674C6.5197 0.783576 6.25216 1.07173 6.25216 1.42097V13.2525C5.69995 12.9152 5.0199 12.7081 4.27527 12.7081C2.45918 12.7081 0.980469 13.8992 0.980469 15.3638C0.980469 16.8285 2.45918 18.0196 4.27527 18.0196C6.09137 18.0196 7.57008 16.8285 7.57008 15.3638V7.62488C8.55984 8.00599 10.1796 8.97668 10.625 11.2434C10.542 11.3669 10.4629 11.4997 10.3707 11.6059C10.1295 11.8808 10.1558 12.3004 10.43 12.5421C10.7015 12.7864 11.1179 12.7572 11.3591 12.4823C11.5357 12.2805 11.6925 12.0441 11.8428 11.7971C11.8586 11.7785 11.8731 11.7586 11.8863 11.736Z" fill="white"/>
</svg>
