<svg width="15" height="10" viewBox="0 0 15 10" fill="none" xmlns="http://www.w3.org/2000/svg">
<path d="M14.4375 1.76471C13.8172 1.76471 13.3125 1.23694 13.3125 0.588235V0H1.6875V0.588235C1.6875 1.23694 1.18283 1.76471 0.5625 1.76471H0V8.23529H0.5625C1.18283 8.23529 1.6875 8.76306 1.6875 9.41177V10H13.3125V9.41177C13.3125 8.76306 13.8172 8.23529 14.4375 8.23529H15V1.76471H14.4375ZM9.43237 7.98275L7.5 6.92031L5.56766 7.98271L5.93674 5.73255L4.3734 4.13894L6.53385 3.81071L7.5 1.76341L8.46619 3.81071L10.6266 4.13894L9.06326 5.73255L9.43237 7.98275Z" fill="white"/>
</svg>
