<svg width="1410" height="766" viewBox="0 0 1410 766" fill="none" xmlns="http://www.w3.org/2000/svg">
<mask id="mask0" mask-type="alpha" maskUnits="userSpaceOnUse" x="0" y="0" width="1410" height="766">
<rect width="1410" height="766" rx="60" fill="white"/>
</mask>
<g mask="url(#mask0)">
<g filter="url(#filter0_b)">
<path d="M0 60C0 26.8629 26.8629 0 60 0H1350C1383.14 0 1410 26.8629 1410 60V706C1410 739.137 1383.14 766 1350 766H60C26.8629 766 0 739.137 0 706V60Z" fill="#FFF5F6"/>
</g>
<path fill-rule="evenodd" clip-rule="evenodd" d="M1410 0H0V264.693V354L3.57628e-06 344.693C3.57628e-06 300.58 35.7038 264.806 79.79 264.693L1330 264.693C1374.18 264.693 1410 228.876 1410 184.693V0Z" fill="white"/>
</g>
<defs>
<filter id="filter0_b" x="-18" y="-18" width="1446" height="802" filterUnits="userSpaceOnUse" color-interpolation-filters="sRGB">
<feFlood flood-opacity="0" result="BackgroundImageFix"/>
<feGaussianBlur in="BackgroundImage" stdDeviation="9"/>
<feComposite in2="SourceAlpha" operator="in" result="effect1_backgroundBlur"/>
<feBlend mode="normal" in="SourceGraphic" in2="effect1_backgroundBlur" result="shape"/>
</filter>
</defs>
</svg>
